<svg width="2386" height="2489" viewBox="0 0 2386 2489" fill="none" xmlns="http://www.w3.org/2000/svg">
<path fill-rule="evenodd" clip-rule="evenodd" d="M411.479 436.905C488.836 499.754 517.856 494.959 663.122 485.266L2032.6 403.036C2061.64 403.036 2037.49 374.06 2027.8 369.245L1800.36 204.823C1756.78 170.988 1698.72 132.241 1587.44 141.934L261.378 238.653C213.017 243.448 203.358 267.629 222.616 287.01L411.479 436.905ZM493.7 756.061V2196.99C493.7 2274.43 532.398 2303.4 619.497 2298.61L2124.55 2211.52C2211.69 2206.73 2221.4 2153.46 2221.4 2090.55V659.298C2221.4 596.492 2197.24 562.624 2143.9 567.458L571.101 659.298C513.056 664.176 493.7 693.211 493.7 756.061ZM150.04 108.104L1529.36 6.52708C1698.74 -8.00004 1742.32 1.73199 1848.78 79.0648L2289.08 388.528C2361.73 441.744 2385.94 456.232 2385.94 514.242V2211.52C2385.94 2317.89 2347.19 2380.8 2211.72 2390.42L609.912 2487.15C508.212 2492 459.811 2477.51 406.552 2409.77L82.3116 1989.08C24.2178 1911.64 0.0565186 1853.71 0.0565186 1785.94V277.282C0.0565186 190.296 38.8183 117.734 150.04 108.104Z" fill="white"/>
<path d="M1080.42 1543.28C1080.42 1676.06 1108.42 1774.61 1164.43 1838.91C1220.43 1903.22 1297.58 1935.37 1395.88 1935.37C1442.95 1935.37 1487.04 1928.53 1528.15 1914.83C1569.26 1901.14 1602.02 1885.36 1626.45 1867.49C1646.71 1830.58 1663.39 1785.92 1676.5 1733.52C1689.6 1681.12 1696.16 1625.15 1696.16 1565.61V940.397L1559.43 910.029L1577.3 822.5H1940.13L1958 910.029L1822.16 940.397V1545.06C1822.16 1718.34 1784.33 1846.06 1708.67 1928.23C1633 2009.8 1516.83 2050.59 1360.14 2050.59C1211.79 2050.59 1099.78 2013.67 1024.12 1939.84C948.456 1865.41 910.624 1749.6 910.624 1592.4V940.397L773 910.029L790.873 822.5H1198.38L1216.26 910.029L1080.42 940.397V1543.28Z" fill="white"/>
</svg>
